<svg id="Layer_1" data-name="Layer 1" xmlns="http://www.w3.org/2000/svg" viewBox="0 0 240.63 114.58"><defs><style>.cls-1{fill:#fff;}</style></defs><title>Bloomberg Philanthropies Credit Lock-up (1)</title><path class="cls-1" d="M135.4,28.79c2.6,0,3.38-.8,4.45-3.79l4.07-11.56h-2.63l-2.63,8.31L136,13.44h-2.8L137.44,25l-0.13.28c-0.52,1.51-1,1.59-2.11,1.59h-1v2h1.16ZM121.84,9.42V25h2.56V23.49a3.83,3.83,0,0,0,3.44,1.81c2.82,0,5-2.35,5-6.07s-2.15-6-5-6A3.83,3.83,0,0,0,124.4,15V9.42h-2.56Zm2.45,9.81c0-2.67,1.31-4,3-4s2.86,1.53,2.86,4-1.08,4-2.86,4-3-1.31-3-4m-13.28,0c0,2.67-1.31,4-3,4s-2.86-1.53-2.86-4,1.08-4,2.86-4,3,1.29,3,4M110.91,15a3.83,3.83,0,0,0-3.44-1.81c-2.82,0-5,2.35-5,6s2.15,6.07,5,6.07a3.83,3.83,0,0,0,3.44-1.81V25h2.56V9.42h-2.56V15Zm-15.37.19a2.82,2.82,0,0,1,2.88,2.9h-5.9a2.9,2.9,0,0,1,3-2.9M95.71,25.3a5.1,5.1,0,0,0,5.19-3.74H98.38a2.7,2.7,0,0,1-2.78,1.61A3.12,3.12,0,0,1,92.53,20H101c0.22-3.89-1.87-6.78-5.49-6.78-3.36,0-5.62,2.48-5.62,6,0,3.31,2,6.15,5.79,6.15M83.86,13.44H82.14v1.85h1.72V22c0,2.37.49,3,3,3h1.89v-2H87.8c-1.1,0-1.38-.28-1.38-1.46V15.29h2.32V13.44H86.42V10.39H83.86v3.06Zm-2.52,0c-0.19,0-.47,0-0.67,0a3.47,3.47,0,0,0-3.14,2.09V13.44H75V25h2.56V19c0-2.32.93-3,2.54-3,0.39,0,.8,0,1.23.06V13.46Zm-14.07-.28c-2.91,0-5.64,1.89-5.64,6.07s2.73,6,5.64,6,5.64-1.87,5.64-6-2.73-6.07-5.64-6.07m0,10c-1.7,0-3-1.29-3-4s1.29-4,3-4,3,1.31,3,4-1.29,4-3,4M49.21,13.44V28.79h2.56V23.49a3.83,3.83,0,0,0,3.44,1.81c2.82,0,5-2.35,5-6.07s-2.15-6-5-6A3.83,3.83,0,0,0,51.77,15V13.44H49.21Zm2.45,5.79c0-2.67,1.31-4,3-4s2.86,1.53,2.86,4-1.08,4-2.86,4-3-1.31-3-4M36.15,13.44V28.79h2.56V23.49a3.83,3.83,0,0,0,3.44,1.81c2.82,0,5-2.35,5-6.07s-2.15-6-5-6A3.83,3.83,0,0,0,38.71,15V13.44H36.15Zm2.45,5.79c0-2.67,1.31-4,3-4s2.86,1.53,2.86,4-1.08,4-2.86,4-3-1.31-3-4M30.7,25h2.56V13.44H30.7v6.18c0,2.09-.69,3.59-2.6,3.59S26,21.69,26,20.11V13.44H23.41v7.3c0,2.75,1.12,4.56,3.87,4.56a3.68,3.68,0,0,0,3.42-1.87V25Zm-15-6.71c1.49,0.28,3.21.82,3.21,2.41s-1.49,2.35-3.34,2.35a3.74,3.74,0,0,1-4-3.21H8.86c0.32,3.42,2.86,5.44,6.56,5.44,3.08,0,6.2-1.61,6.2-4.76s-2.6-4.13-5.34-4.67l-1.92-.37C13,15.25,12,14.65,12,13.44c0-1.53,1.79-2.07,3-2.07,1.53,0,3.16.54,3.62,2.41H21.3c-0.62-3.25-3-4.65-6.11-4.65-2.86,0-5.9,1.46-5.9,4.39,0,2.65,2,3.92,4.5,4.41Z"/><path class="cls-1" d="M230.69,83.62V79h-1c-0.07.8-.11,1.16-0.78,1.16a1.48,1.48,0,0,1-.85-0.29,6.32,6.32,0,0,0-2.92-.69,4.66,4.66,0,0,0-4.95,4.91c0,3.57,2.62,4.4,5,5.17,1.51,0.44,4.17.76,4.17,2.69,0,1.16-1.22,2.33-3.14,2.33a5.1,5.1,0,0,1-3.43-1.34,5.79,5.79,0,0,1-1.7-3.64H220v5.53h1.07c0-.25-0.07-1,0.59-1a3.36,3.36,0,0,1,1.18.55,6.63,6.63,0,0,0,3.25.87,5.41,5.41,0,0,0,5.69-5.49c0-3.35-2.84-4.15-4.62-4.65L226,84.79a8.74,8.74,0,0,1-2.58-1,2,2,0,0,1-.7-1.49,2.39,2.39,0,0,1,2.62-2.15,4.87,4.87,0,0,1,2.73.87,4,4,0,0,1,1.55,2.58h1Zm-22.45-.44c0.15-1.45.37-3.2,3-3.2,2.4,0,2.51,1.78,2.62,3.06v2.11h-5.61Zm10.45,3a8,8,0,0,0-2-4.8,7.54,7.54,0,0,0-5.5-2.25,7.83,7.83,0,0,0-8.16,8c0,4.4,3.21,8.07,8.46,8.07,4.47,0,6.17-3,7-4.62l-0.92-.44c-0.92,1.45-2.47,3.93-5.61,3.93-3.69,0-3.8-3.64-3.84-5,0-1,0-1.93,0-2.87h10.56ZM194.88,72.89a2.66,2.66,0,1,0,2.66-2.62,2.63,2.63,0,0,0-2.66,2.62m-1.66,7.64h2.51V93.84h-2.51v0.95h9.49V93.84h-2.36V79.26c-1.73.11-2.7,0.18-3.62,0.25s-1.85.07-3.51,0.07v0.95Zm-5.72,6.33c0.07,4.4-.41,7.17-2.88,7.17a4.39,4.39,0,0,1-3.47-2.55,9.3,9.3,0,0,1-.78-4.25c0-4.07,1.37-5.38,2.22-6a3.22,3.22,0,0,1,1.88-.69c1.73,0,2.33,1.49,2.58,2.47a17.22,17.22,0,0,1,.44,3.89m-6.83-7.6a39,39,0,0,1-7.16.33v1h2.4v23.86h-2.4v1h10.08v-1h-3V92.61a6.06,6.06,0,0,0,5,2.62A6.52,6.52,0,0,0,191,92.46a7.87,7.87,0,0,0,1.63-5c0-5.93-4.1-8.29-7.24-8.29-2.55,0-3.77,1.45-4.76,2.65ZM168.52,86.9c0,3.56,0,7.56-3.62,7.56a3.34,3.34,0,0,1-3.06-1.82c-0.3-.51-0.67-1.27-0.67-5.6,0-3.2.07-7,3.69-7a3.27,3.27,0,0,1,3.18,2c0.22,0.47.44,1,.48,4.84m5,0c-0.37-5.74-5.28-7.71-8.64-7.71-3.77,0-8.86,2.33-8.86,8,0,4.07,3,8.07,9,8.07,5.36,0,7.57-3.53,8.09-4.94a8.06,8.06,0,0,0,.44-3.38M148,79.26a69.09,69.09,0,0,1-7.27.33v0.95h2.51V93.84h-2.51v0.95H151V93.84h-3.06V86.93a8.52,8.52,0,0,1,1.48-5s1.18-1.49,1.7-1.49a0.5,0.5,0,0,1,.52.36,1.11,1.11,0,0,1-.19.37,2.08,2.08,0,0,0-.48,1.34,2.21,2.21,0,0,0,2.36,2.15,2.35,2.35,0,0,0,2.47-2.47,3,3,0,0,0-3.25-3,4.3,4.3,0,0,0-3.43,1.6,10.79,10.79,0,0,0-1.15,1.64ZM127.86,68.89c-0.63.07-1.37,0.18-3.43,0.29-1.51.07-2.77,0.07-3.77,0.07v1h2.66v23.6h-2.66v0.95h9.41V93.84h-2.25V87.22c0-2.07.07-4.4,2.18-5.82a3.61,3.61,0,0,1,2.1-.65c2,0,2.22,1.64,2.18,3.49v9.6h-2v0.95h9V93.84h-2.44V84.1a4.8,4.8,0,0,0-1-3.6A5,5,0,0,0,134,79.15a7.56,7.56,0,0,0-6.13,3.09V68.89Zm-11.08,4.58h-1c-2.14,4.58-4.43,5.71-6.09,6.47v0.58h2.66l-0.07,10.4c0,1.6,0,4.29,3.77,4.29s4.73-2.62,5.24-4.36l-1-.22c-0.44,1.45-1,2.66-2.14,2.66s-1.29-1.35-1.29-2.22V80.53H120V79.59h-3.21V73.48ZM97.32,79.26c-2.73.11-4.87,0.33-7.13,0.33v0.95h2.51V93.84H90.2v0.95h9.49V93.84H97.32V87.08a13.43,13.43,0,0,1,.15-2.95,4.51,4.51,0,0,1,3.88-3.31c2.25,0,2.25,2,2.25,4v9h-2.07v0.95h9.08V93.84h-2.44V84.13c0-1.6,0-3.86-3-4.69a7.61,7.61,0,0,0-4.91.26,6.8,6.8,0,0,0-3,2.25V79.26ZM82.89,89.55a3.32,3.32,0,0,1-1,2.95,2.75,2.75,0,0,1-1.62.58,2.56,2.56,0,0,1-2.51-2.8c0-3.24,3.21-3.42,5.17-3.53v2.8Zm4.39-5.64c0-1.27,0-3.05-2.47-4.11a9.92,9.92,0,0,0-3.69-.65c-3.58,0-6.46,1.63-6.46,4a2,2,0,0,0,2.07,2,2,2,0,0,0,2.1-2,1.63,1.63,0,0,0-.18-0.73c-0.11-.29-0.33-0.51-0.44-0.8a0.82,0.82,0,0,1-.11-0.4c0-.33.55-1.05,2.22-1.05,2.47,0,2.58,1.24,2.58,2.76v2.87c-2.29.22-5.32,0.47-7.39,2a4.71,4.71,0,0,0-2.14,3.82c0,1.13.55,3.67,4.36,3.67a6.59,6.59,0,0,0,5.17-2.51,3.72,3.72,0,0,0,3.4,2.51,5,5,0,0,0,3.62-1.82l-0.59-.8a2,2,0,0,1-1.11.55c-0.89,0-.92-1.05-0.92-1.89V83.91ZM70,68.89a27.44,27.44,0,0,1-4,.36c-1.33,0-2.55,0-3.25,0v1h2.58V93.84H62.76v0.95h9.67V93.84H70V68.89Zm-15.74,4a2.66,2.66,0,1,0,2.66-2.62,2.63,2.63,0,0,0-2.66,2.62M52.6,80.53h2.51V93.84H52.6v0.95h9.49V93.84H59.73V79.26c-1.74.11-2.7,0.18-3.62,0.25s-1.85.07-3.51,0.07v0.95ZM38.47,68.89c-0.63.07-1.37,0.18-3.43,0.29-1.51.07-2.77,0.07-3.77,0.07v1h2.66v23.6H31.27v0.95h9.41V93.84H38.44V87.22c0-2.07.07-4.4,2.18-5.82a3.61,3.61,0,0,1,2.1-.65c2,0,2.22,1.64,2.18,3.49v9.6h-2v0.95h9V93.84H49.48V84.1a4.8,4.8,0,0,0-1-3.6,5,5,0,0,0-3.88-1.34,7.56,7.56,0,0,0-6.13,3.09V68.89Zm-21,1.16h3.29a4.45,4.45,0,0,1,3.88,1.49c0.7,0.95.89,2.4,0.89,4.4,0,3.13-.92,4.44-1.48,4.84a5.93,5.93,0,0,1-3.18.95h-3.4V70.06Zm0,12.73h5a10.69,10.69,0,0,0,6.31-1.56,6.07,6.07,0,0,0,2.55-5.13,6.75,6.75,0,0,0-2.58-5.42c-2-1.45-4.39-1.49-6.42-1.56H8.86v0.95H12V93.84H8.86v0.95H20.94V93.84H17.46V82.79Z"/><path class="cls-1" d="M172.67,66c0.78,0,2.62,0,2.62,2,0,2.26-2.62,4.22-7,4.22-4.06,0-5.47-2.07-5.47-3.71A3.34,3.34,0,0,1,164.07,66h8.6ZM165.92,53c0-2.58,0-4.76,2.51-4.76a2.15,2.15,0,0,1,2.07,1.2c0.37,0.8.37,1.6,0.37,3.71,0,2.58,0,4.69-2.4,4.69s-2.55-2-2.55-4.84m-1.44,8.62c-1.22,0-2.29,0-2.29-1.2s1.44-1.93,2.59-2.36a7.78,7.78,0,0,0,3.77.83c3.73,0,6.87-2,6.87-5.89a4.84,4.84,0,0,0-.81-2.65c0.11-.51.22-0.69,0.41-0.69s0.22,0,.52.36a1.35,1.35,0,0,0,1.07.47,1.53,1.53,0,0,0,1.59-1.64,1.64,1.64,0,0,0-1.73-1.67,2.58,2.58,0,0,0-1.48.51,3.1,3.1,0,0,0-1.07,1.75,7.36,7.36,0,0,0-5.32-2.07c-3.36,0-7.13,1.85-7.13,5.82a5.36,5.36,0,0,0,2.51,4.4c-0.89.29-3.77,1.31-3.77,4.62a3.43,3.43,0,0,0,1,2.51,3.08,3.08,0,0,0,2,1.05c-1,.37-3,1-3,3.06,0,2.25,2.73,4.62,8.05,4.62,5.06,0,8.82-2.47,8.82-6.87a4.83,4.83,0,0,0-.92-3.09c-1.33-1.89-2.69-1.85-5.35-1.85h-6.35ZM152.73,47.44a69.08,69.08,0,0,1-7.27.33v0.95H148V62h-2.51V63h10.23V62h-3.06V55.11a8.51,8.51,0,0,1,1.48-5s1.18-1.49,1.7-1.49a0.5,0.5,0,0,1,.52.36,1.13,1.13,0,0,1-.18.36,2.08,2.08,0,0,0-.48,1.35A2.21,2.21,0,0,0,158,52.82a2.35,2.35,0,0,0,2.47-2.47,3,3,0,0,0-3.25-3,4.3,4.3,0,0,0-3.44,1.6,10.77,10.77,0,0,0-1.14,1.64Zm-18,3.93c0.15-1.45.37-3.2,3-3.2,2.4,0,2.51,1.78,2.62,3.05v2.11h-5.61Zm10.45,3a8,8,0,0,0-2-4.8,7.53,7.53,0,0,0-5.5-2.25,7.83,7.83,0,0,0-8.16,8c0,4.4,3.21,8.07,8.45,8.07,4.47,0,6.17-3,7-4.62l-0.92-.44c-0.92,1.45-2.47,3.93-5.61,3.93-3.69,0-3.8-3.64-3.84-5,0-1,0-1.93,0-2.87h10.56ZM123.09,55c0,4-.11,7.2-3.07,7.2a4.48,4.48,0,0,1-3.66-2.15,9,9,0,0,1-1.11-4.65,9.93,9.93,0,0,1,1-4.44,4.83,4.83,0,0,1,3.8-2.51c2.29,0,2.66,2.07,2.81,2.8a25.06,25.06,0,0,1,.26,3.75m-7.64-17.93a38.36,38.36,0,0,1-4,.4h-3.21v1h2.58V62h-2.58V63h7.16V60.67a6.62,6.62,0,0,0,5.43,2.69,6.54,6.54,0,0,0,5.57-2.65,7.92,7.92,0,0,0,1.77-5.17c0-5.89-4.1-8.22-7.42-8.22A6.62,6.62,0,0,0,115.44,50V37.07ZM85.8,47.44a44.64,44.64,0,0,1-7.05.33v0.95h2.44V62H78.74V63H88V62H85.76V54.31c0.11-1.71.18-2.91,1.07-4A3.63,3.63,0,0,1,89.52,49c2,0,2.22,1.71,2.22,3.78V62h-2V63h8.68V62H96.21V54.93c0-1.93.07-3.56,1.44-4.87A3.71,3.71,0,0,1,100.08,49c2.11,0,2.11,1.78,2.11,3.64V62h-2V63h8.9V62h-2.29V52.49c-0.11-2-.15-5.17-5-5.17a6,6,0,0,0-5.54,3.13c-0.85-1.56-1.77-3.16-5.1-3.16a6.49,6.49,0,0,0-5.32,2.8V47.44ZM73.39,55.07c0,3.56,0,7.56-3.62,7.56a3.34,3.34,0,0,1-3.06-1.82c-0.3-.51-0.67-1.27-0.67-5.6,0-3.2.07-7,3.69-7a3.27,3.27,0,0,1,3.18,2c0.22,0.47.44,1,.48,4.84m5,0c-0.37-5.75-5.28-7.71-8.64-7.71-3.77,0-8.86,2.33-8.86,8,0,4.07,3,8.07,9,8.07,5.35,0,7.57-3.53,8.09-4.95A8.1,8.1,0,0,0,78.41,55m-23.88,0c0,3.56,0,7.56-3.62,7.56a3.34,3.34,0,0,1-3.06-1.82c-0.3-.51-0.67-1.27-0.67-5.6,0-3.2.07-7,3.69-7a3.27,3.27,0,0,1,3.18,2c0.22,0.47.44,1,.48,4.84m5,0c-0.37-5.75-5.28-7.71-8.64-7.71-3.77,0-8.86,2.33-8.86,8,0,4.07,3,8.07,9,8.07,5.35,0,7.57-3.53,8.09-4.95A8.12,8.12,0,0,0,59.56,55m-20.34-18a27.64,27.64,0,0,1-4,.36c-1.33,0-2.55,0-3.25,0v1h2.58V62H32V63h9.67V62H39.21V37.07ZM17.54,38.31h2.88c3,0,4.58.73,4.58,5.53,0,4.25-1.55,5.27-4.43,5.27h-3V38.31Zm0,11.82H21a4.46,4.46,0,0,1,3.69,1.42c0.89,1.05,1,2.76,1,4.62a8,8,0,0,1-.78,4.11A3.87,3.87,0,0,1,21.23,62H17.54V50.13ZM8.94,37.29v0.95h3.14V62H8.94V63H20.45c3.88,0,8.53,0,10.52-3.71a6.48,6.48,0,0,0,.74-3.09c0-3.71-2.73-5.53-5.28-6.18a22.1,22.1,0,0,0-2.77-.44,19.15,19.15,0,0,0,2.51-.47,5.7,5.7,0,0,0,1.33-10.55c-2-1.13-4.39-1.2-6.53-1.24h-12Z"/></svg>
