<?xml version="1.0" encoding="utf-8"?>
<!-- Generator: Adobe Illustrator 21.0.0, SVG Export Plug-In . SVG Version: 6.00 Build 0)  -->
<svg version="1.1" id="Layer_1" xmlns="http://www.w3.org/2000/svg" xmlns:xlink="http://www.w3.org/1999/xlink" x="0px" y="0px"
	 viewBox="0 0 51 51" style="enable-background:new 0 0 51 51;" xml:space="preserve">
<style type="text/css">
	.st0{fill:#909090;}
</style>
<g>
	<path class="st0" d="M0,0v51h0.4H51V0H0z M49.9,49.9H1.1V1.1H50L49.9,49.9L49.9,49.9z"/>
	<g>
		<path class="st0" d="M8.2,30.9l-0.5-1.2H5.8v0.1c-0.1,0.3-0.3,0.8-0.4,1.1h-1L6,27.5c0.3-0.5,0.4-1,0.5-1.3L7,26.1l1.6,3.4
			c0.2,0.4,0.4,1,0.6,1.4H8.2z M7.4,29.1l-0.6-1.6l-0.6,1.6H7.4z"/>
		<path class="st0" d="M13.3,30.9l-1.1-1.8h-0.6v0.8c0,0.3,0,0.8,0.1,1h-1c0.1-0.3,0.1-1.2,0.1-1.6v-1.4c0-0.4,0-1.3-0.1-1.6
			c0.2,0,1.1,0,1.4-0.1c1.3,0,2,0.6,1.9,1.4c0,0.6-0.3,1.1-1,1.3l0.8,1.1c0.2,0.2,0.5,0.6,0.6,0.9L13.3,30.9z M11.5,28.5h0.6
			c0.5,0,0.9-0.4,0.9-0.8c0-0.5-0.3-0.8-1-0.8c-0.2,0-0.3,0-0.5,0c0,0.1,0,0.3,0,0.4C11.5,27.3,11.5,28.5,11.5,28.5z"/>
		<path class="st0" d="M19.3,26.9c-0.5,0-0.9,0-1.4,0c0,0.2,0,0.3,0,0.4v2.6c0,0.3,0,0.8,0.1,1h-1c0.1-0.3,0.1-1.2,0.1-1.6V28
			c0-0.3,0-0.7,0-1.1c-0.6,0-1,0-1.5,0c0-0.2,0.1-0.5,0.1-0.8c0.6,0,1.2,0.1,2,0.1s1.4,0,2-0.1C19.3,26.4,19.3,26.6,19.3,26.9z"/>
		<path class="st0" d="M5.2,38.7c0.1-0.3,0.1-1.2,0.1-1.6v-1.5c0-0.4,0-1.3-0.1-1.6c0.3,0,0.8,0,1-0.1c0,0.2,0,0.8,0,1v2.8
			c0,0.3,0,0.8,0,1L5.2,38.7L5.2,38.7z"/>
		<path class="st0" d="M12.6,34.9l-0.1,2.8c0,0.3,0,0.8,0,1L12,38.8l-2.7-3.2v2.1c0,0.3,0,0.8,0.1,1h-1c0.1-0.3,0.1-1.2,0.1-1.6
			v-1.6c0-0.4,0-1.2-0.1-1.6l0.5-0.1l2.8,3.3v-1.5c0-0.4,0-1.3-0.1-1.6c0.3,0,0.8,0,1-0.1C12.6,34.1,12.6,34.6,12.6,34.9z"/>
		<path class="st0" d="M15.9,38.8c-0.5,0-1.1-0.2-1.4-0.4l0.1-0.9c0.3,0.3,0.9,0.5,1.4,0.5c0.4,0,0.7-0.2,0.7-0.6c0-0.8-2-0.9-2-2.1
			c0-0.8,0.6-1.4,1.6-1.4c0.5,0,0.9,0.2,1.2,0.3L17.3,35c-0.3-0.2-0.6-0.3-1-0.3s-0.6,0.2-0.6,0.5c0,0.8,2,0.8,2,2.1
			C17.6,38.2,16.9,38.8,15.9,38.8z"/>
		<path class="st0" d="M22.9,34.7c-0.5,0-0.9,0-1.5,0c0,0.2,0,0.3,0,0.4v2.6c0,0.3,0,0.8,0,1h-1c0.1-0.3,0.1-1.2,0.1-1.6v-1.3
			c0-0.3,0-0.7,0-1.1c-0.6,0-1,0-1.5,0c0-0.2,0-0.5,0-0.8c0.6,0,1.2,0.1,2,0.1s1.4,0,2-0.1C22.9,34.1,22.9,34.4,22.9,34.7z"/>
		<path class="st0" d="M24.4,38.7c0.1-0.3,0.1-1.2,0.1-1.6v-1.5c0-0.4,0-1.3-0.1-1.6c0.3,0,0.8,0,1-0.1c0,0.2,0,0.8,0,1v2.8
			c0,0.3,0,0.8,0,1L24.4,38.7L24.4,38.7z"/>
		<path class="st0" d="M30.9,34.7c-0.5,0-0.9,0-1.5,0c0,0.2,0,0.3,0,0.4v2.6c0,0.3,0,0.8,0.1,1h-1c0.1-0.3,0.1-1.2,0.1-1.6v-1.3
			c0-0.3,0-0.7,0-1.1c-0.6,0-1,0-1.5,0c0-0.2,0.1-0.5,0.1-0.8c0.6,0,1.2,0.1,2,0.1s1.4,0,2-0.1C30.9,34.1,30.9,34.4,30.9,34.7z"/>
		<path class="st0" d="M36.6,34l-1.4,3.4c-0.3,0.5-0.4,0.9-0.5,1.3l-0.5,0.1l-1.4-3.4c-0.2-0.4-0.4-1-0.6-1.3l1-0.1l1.3,3.3l0.8-2
			c0.1-0.3,0.3-0.9,0.4-1.2L36.6,34L36.6,34z"/>
		<path class="st0" d="M41.5,34.7c-0.5,0-0.9,0-1.5,0c0,0.2,0,0.3,0,0.4v2.6c0,0.3,0,0.8,0.1,1h-1c0.1-0.3,0.1-1.2,0.1-1.6v-1.3
			c0-0.3,0-0.7,0-1.1c-0.6,0-1,0-1.5,0c0-0.2,0.1-0.5,0.1-0.8c0.6,0,1.2,0.1,2,0.1s1.4,0,2-0.1C41.5,34.1,41.5,34.4,41.5,34.7z"/>
		<path class="st0" d="M46.2,38.7c-0.4,0-0.9-0.1-1.4-0.1s-1.1,0-1.5,0.1c0.1-0.3,0.1-1.2,0.1-1.6v-1.5c0-0.4,0-1.3-0.1-1.6
			c0.4,0,0.9,0.1,1.4,0.1s1,0,1.4-0.1C46,34.3,46,34.5,46,34.8c-0.4,0-0.8,0-1.2,0c-0.2,0-0.4,0-0.6,0c0,0.1,0,0.3,0,0.4V36h1.6
			c0,0.2,0,0.4,0,0.7h-1.6v1c0,0.1,0,0.3,0,0.4c0.2,0,0.4,0,0.6,0c0.5,0,1,0,1.4,0C46.2,38.2,46.2,38.4,46.2,38.7z"/>
		<path class="st0" d="M8.6,46.1c-0.4,0.3-0.9,0.5-1.5,0.5c-1.4,0-2.4-1.1-2.4-2.4c0-1.4,1-2.6,2.5-2.6c0.5,0,1,0.2,1.4,0.4
			l-0.2,0.8c-0.3-0.2-0.7-0.4-1.1-0.4c-0.9,0-1.6,0.7-1.6,1.7c0,1.1,0.6,1.7,1.5,1.7c0.6,0,1-0.2,1.4-0.6V46.1z"/>
		<path class="st0" d="M13.8,46.4c0.1-0.3,0.1-1.1,0.1-1.6v-0.5h-2.1v1.1c0,0.3,0,0.8,0.1,1h-1c0.1-0.3,0.1-1.2,0.1-1.6v-1.5
			c0-0.4,0-1.3-0.1-1.6c0.3,0,0.8,0,1-0.1c0,0.2-0.1,0.8-0.1,1v1h2.1v-0.3c0-0.4,0-1.3-0.1-1.6c0.3,0,0.8,0,1-0.1
			c0,0.2-0.1,0.8-0.1,1v2.8c0,0.3,0,0.8,0.1,1L13.8,46.4L13.8,46.4z"/>
		<path class="st0" d="M17,46.4c0.1-0.3,0.1-1.2,0.1-1.6v-1.5c0-0.4,0-1.3-0.1-1.6c0.3,0,0.8,0,1-0.1c0,0.2,0,0.8,0,1v2.8
			c0,0.3,0,0.8,0,1L17,46.4L17,46.4z"/>
		<path class="st0" d="M23.9,46.1c-0.4,0.3-0.9,0.5-1.5,0.5c-1.4,0-2.4-1.1-2.4-2.4c0-1.4,1-2.6,2.5-2.6c0.5,0,1,0.2,1.4,0.4
			l-0.2,0.8c-0.4-0.2-0.8-0.4-1.2-0.4c-0.9,0-1.6,0.7-1.6,1.7c0,1.1,0.6,1.7,1.5,1.7c0.6,0,1-0.2,1.4-0.6L23.9,46.1z"/>
		<path class="st0" d="M29,46.5l-0.5-1.2h-1.8v0.1c-0.1,0.3-0.3,0.8-0.4,1.1h-1l1.6-3.4c0.3-0.5,0.4-1,0.5-1.3l0.5-0.1l1.6,3.4
			c0.2,0.4,0.4,1,0.6,1.4H29z M28.2,44.6L27.6,43L27,44.6H28.2z"/>
		<path class="st0" d="M34.4,44.2c0.4,0,0.6,0,1,0c-0.1,0.3-0.1,0.9-0.1,1.3v0.6c-0.4,0.3-0.9,0.5-1.8,0.5c-1.4,0-2.4-1.1-2.4-2.4
			c0-1.5,1.1-2.6,2.6-2.6c0.6,0,1.2,0.2,1.6,0.4L35,42.8c-0.3-0.2-0.8-0.4-1.3-0.4c-1,0-1.6,0.7-1.6,1.7c0,1.1,0.8,1.7,1.6,1.7
			c0.3,0,0.6-0.1,0.9-0.2V45c0-0.1,0-0.3,0-0.4L34.4,44.2z"/>
		<path class="st0" d="M41.7,44c0,1.4-1,2.6-2.4,2.6S37,45.5,37,44.2c0-1.4,1-2.6,2.4-2.6C40.8,41.6,41.7,42.7,41.7,44z M40.8,44.1
			c0-1.1-0.6-1.7-1.4-1.7c-0.9,0-1.4,0.8-1.4,1.7c0,1.1,0.6,1.7,1.4,1.7S40.8,45,40.8,44.1z"/>
	</g>
</g>
</svg>
