<?xml version="1.0" encoding="utf-8"?>
<!-- Generator: Adobe Illustrator 19.1.0, SVG Export Plug-In . SVG Version: 6.00 Build 0)  -->
<svg version="1.1" id="Layer_1" xmlns="http://www.w3.org/2000/svg" xmlns:xlink="http://www.w3.org/1999/xlink" x="0px" y="0px"
	 viewBox="0 0 1200 250" enable-background="new 0 0 1200 250" xml:space="preserve">
<path fill="#153042" d="M1200,0H684l0,0c-56,0-112,0-168,0l0,0H0v250h511c0,0,0,0.1,0,0.1c0,0.2,0.3,0,0.5,0
	c59.1,0,118.2-0.1,177.3-0.1c0.2,0,0.2,0,1.2,0c0,0,0,0.1,0,0h510V0z M544.7,72.3c0.4-6.1,2-11.8,4.7-17.2
	c3.2-6.5,7.7-12.1,13.2-16.8c7.3-6.2,15.6-10.5,25-12.7c4.9-1.2,9.9-1.7,14.9-1.4c9.9,0.4,19,3.3,27.4,8.4
	c9.3,5.7,16.8,13.2,22.2,22.7c2.3,4,4,8.3,5,12.8c0.6,2.9,0.8,5.8,0.7,8.7c-0.4,7.8-2.4,15.3-5.3,22.5c-3.4,8.1-7.7,15.7-13,22.7
	c-0.2,0.3-0.3,0.6-0.3,1c0.4,3.7,0.7,7.3,1.1,11c0.3,3.1,0.6,6.2,0.9,9.2c0.3,3.1,0.6,6.1,0.9,9.2c0.3,2.7,0.5,5.3,0.8,8
	c0.3,2.7,0.5,5.3,0.8,8c0.2,2.3,0.4,4.5,0.6,6.8c0.3,2.7,0.5,5.3,0.8,8c0.2,2.2,0.4,4.5,0.6,6.7c0.2,2.3,0.4,4.5,0.7,6.8
	c0.2,1.8,0.3,3.6,0.5,5.4c0.2,2.3,0.4,4.6,0.7,6.9c0.2,1.8,0.3,3.6,0.5,5.4c0.2,2.3,0.4,4.6,0.7,6.9c0.2,1.8,0.3,3.4,0.5,5.2
	c0.1,1.6,0.3,3.5,0.5,4.5c-32.2,0-64.4,0-96.7,0c0,0,0-0.2,0-0.4c0.1-1.5,0.3-2.9,0.4-4.4c0.2-2,0.4-4,0.5-6.1
	c0.2-2.5,0.5-5.1,0.7-7.6c0.2-2,0.3-3.9,0.5-5.9c0.2-2.5,0.4-5.1,0.7-7.6c0.2-2,0.3-3.9,0.5-5.9c0.2-2.5,0.5-5.1,0.7-7.6
	c0.2-2,0.3-4,0.5-5.9c0.2-2.5,0.4-5.1,0.7-7.6c0.2-2,0.3-3.9,0.5-5.9c0.2-2.6,0.5-5.1,0.7-7.7c0.2-2,0.3-4,0.5-6
	c0.2-2.5,0.4-5,0.7-7.5c0.2-2,0.3-3.9,0.5-5.9c0.2-2.6,0.5-5.1,0.7-7.7c0.2-2,0.3-4,0.5-6c0.1-0.8,0.1-1.6,0.2-2.4
	c0-0.4,0-0.6-0.3-0.9c-6.5-8.3-11.3-17.5-14.4-27.6c-1.3-4.1-2.2-8.2-2.7-12.4C544.6,78.8,544.5,75.6,544.7,72.3z"/>
</svg>
