<?xml version="1.0" encoding="utf-8"?>
<!-- Generator: Adobe Illustrator 19.1.0, SVG Export Plug-In . SVG Version: 6.00 Build 0)  -->
<svg version="1.1" id="Layer_1" xmlns="http://www.w3.org/2000/svg" xmlns:xlink="http://www.w3.org/1999/xlink" x="0px" y="0px"
	 viewBox="0 0 1025 805" enable-background="new 0 0 1025 805" xml:space="preserve">
<path fill="#163142" d="M0,0v805h1025V0H0z M609.1,219.6c-0.8,17.3-5.2,33.7-11.8,49.5c-7.4,17.9-17,34.5-28.7,49.9
	c-0.5,0.7-0.7,1.3-0.6,2.1c0.8,8.1,1.6,16.2,2.4,24.2c0.7,6.8,1.3,13.6,1.9,20.3c0.7,6.7,1.3,13.5,2,20.2c0.6,5.9,1.1,11.7,1.7,17.6
	c0.6,5.9,1.2,11.7,1.7,17.6c0.5,5,0.9,9.9,1.4,14.9c0.6,5.9,1.2,11.7,1.7,17.6c0.5,4.9,0.9,9.8,1.4,14.7c0.5,5,1,10,1.5,15
	c0.4,4,0.8,8,1.2,12c0.5,5,1,10.1,1.5,15.1c0.4,4,0.8,8,1.2,12c0.5,5,1,10.1,1.5,15.1c0.4,4,0.8,7.5,1.1,11.5
	c0.3,3.4,0.7,8.1,1,10.1c-70.9,0-141.7,0-212.7,0c0,0,0-0.5,0-0.9c0.3-3.3,0.6-6.4,0.9-9.7c0.4-4.5,0.8-8.9,1.2-13.3
	c0.5-5.6,1-11.2,1.5-16.8c0.4-4.3,0.8-8.7,1.1-13c0.5-5.6,1-11.1,1.5-16.7c0.4-4.3,0.8-8.7,1.1-13c0.5-5.6,1-11.2,1.5-16.8
	c0.4-4.3,0.8-8.7,1.1-13c0.5-5.6,1-11.1,1.5-16.7c0.4-4.3,0.7-8.6,1.1-12.9c0.5-5.7,1-11.3,1.5-16.9c0.4-4.4,0.8-8.8,1.1-13.2
	c0.5-5.5,1-11,1.5-16.6c0.4-4.3,0.7-8.6,1.1-12.9c0.5-5.7,1-11.3,1.5-16.9c0.4-4.4,0.8-8.8,1.1-13.2c0.2-1.7,0.3-3.5,0.5-5.2
	c0.1-0.8-0.1-1.4-0.6-2c-14.2-18.3-24.8-38.6-31.7-60.7c-2.8-8.9-4.7-18.1-5.8-27.3c-0.8-7.1-1.2-14.3-0.8-21.4
	c0.8-13.3,4.3-25.9,10.2-37.9c7.1-14.3,16.9-26.5,29-36.9c16.1-13.7,34.4-23.1,55-27.9c10.8-2.5,21.7-3.6,32.7-3.2
	c21.7,0.9,41.7,7.3,60.2,18.6c20.5,12.5,36.9,29,48.8,49.9c5.1,8.8,8.9,18.2,11,28.2C608.9,206.8,609.4,213.1,609.1,219.6z"/>
</svg>
