<svg id="Layer_1" data-name="Layer 1" xmlns="http://www.w3.org/2000/svg" xmlns:xlink="http://www.w3.org/1999/xlink" viewBox="0 0 180 180"><defs><style>.cls-1{fill:none;}.cls-2{fill:#fff;}.cls-3{clip-path:url(#clip-path);}.cls-4{fill:#075970;}</style><clipPath id="clip-path"><rect class="cls-1" width="180" height="180"/></clipPath></defs><title>logo-180px</title><rect class="cls-2" width="180" height="180"/><g class="cls-3"><path class="cls-4" d="M25.14,104.59l-2.66-6-2.64,6h5.3Zm3.12,6.94-2.23-5H19l-0.07.19c-0.63,1.44-1.3,3.1-1.9,4.58H14.35L20.06,99c0.94-2,1.56-3.43,2.09-4.82l0.63-.17,5.76,12.36c0.67,1.49,1.61,3.43,2.38,4.92Z"/><path class="cls-4" d="M39.33,102.72h2.42a3.15,3.15,0,0,0,3.43-3.14c0-2.06-1.25-3.14-3.77-3.14-0.77,0-1.44,0-2.06.07,0,0.48,0,1,0,1.39v4.82Zm6.93,8.78-4.32-6.79H39.33v3.17c0,0.94,0,2.78.09,3.46H36.76c0.12-1.15.17-4.22,0.17-5.78v-5.3c0-1.54,0-4.63-.17-5.78,0.86,0,3.31-.09,4.41-0.12,4.22-.07,6.55,2.26,6.48,4.92-0.07,2.33-1.25,3.86-3.53,4.89l2.45,3.6c0.65,0.91,2,2.76,2.52,3.43Z"/><path class="cls-4" d="M67,96.5c-1.85,0-3.46,0-5.59,0,0,0.5,0,1.13,0,1.51v9.91c0,0.94,0,2.78.1,3.46H58.82c0.12-1.15.17-4.22,0.17-5.78v-5.21c0-1,0-2.54-.07-3.89-2.14,0-3.82,0-5.66,0a21,21,0,0,0,.1-2.18c2.18,0.07,4.22.12,6.84,0.12s4.8,0,7-.12A15.37,15.37,0,0,0,67,96.5"/><path class="cls-4" d="M16.94,137.78c0.12-1.15.17-4.22,0.17-5.78v-5.3c0-1.54,0-4.63-.17-5.78a23.21,23.21,0,0,0,2.66-.12c-0.07.7-.09,2.61-0.09,3.55v10c0,0.91,0,2.78.09,3.46H16.94Z"/><path class="cls-4" d="M42.4,124.34l-0.17,10.13c0,0.94,0,2.88,0,3.55l-0.62.17-11-12.64v8.78c0,0.94,0,2.78.09,3.45H28.1c0.14-1.15.26-4.22,0.29-5.78l0.09-5.78c0-1.54,0-4.39-.09-5.54L29,120.5l11.11,12.84v-6.65c0-1.54,0-4.63-.19-5.78a22.62,22.62,0,0,0,2.64-.12c-0.09.7-.17,2.61-0.19,3.55"/><path class="cls-4" d="M54.07,138.21a9.47,9.47,0,0,1-4.73-1.42l0.14-2.54a7.89,7.89,0,0,0,4.73,1.8c1.8,0,3.07-.89,3.07-2.66,0-3.36-7.27-3.53-7.27-7.94a5,5,0,0,1,5.3-4.94,6.69,6.69,0,0,1,3.94,1.25l-0.79,2.11a5.64,5.64,0,0,0-3.24-1.2c-1.75,0-2.81.94-2.81,2.45,0,3,7.25,3.14,7.25,7.94,0,2.9-2.11,5.16-5.59,5.16"/><path class="cls-4" d="M78.71,123c-1.85,0-3.45,0-5.59,0,0,0.5,0,1.13,0,1.51v9.91c0,0.94,0,2.78.1,3.46H70.53c0.12-1.15.17-4.22,0.17-5.78v-5.21c0-1,0-2.54-.07-3.89-2.14,0-3.82,0-5.66,0a20.49,20.49,0,0,0,.1-2.18c2.18,0.07,4.22.12,6.84,0.12s4.8,0,7-.12a15.65,15.65,0,0,0-.19,2.18"/><path class="cls-4" d="M85.22,137.78c0.12-1.15.17-4.22,0.17-5.78v-5.3c0-1.54,0-4.63-.17-5.78a23.21,23.21,0,0,0,2.66-.12c-0.07.7-.09,2.61-0.09,3.55v10c0,0.91,0,2.78.09,3.46H85.22Z"/><path class="cls-4" d="M107.8,123c-1.85,0-3.46,0-5.59,0,0,0.5,0,1.13,0,1.51v9.91c0,0.94,0,2.78.1,3.46H99.62c0.12-1.15.17-4.22,0.17-5.78v-5.21c0-1,0-2.54-.07-3.89-2.14,0-3.82,0-5.66,0a20.49,20.49,0,0,0,.1-2.18c2.18,0.07,4.22.12,6.84,0.12s4.8,0,7-.12a15.65,15.65,0,0,0-.19,2.18"/><path class="cls-4" d="M129,120.94l-5.37,12.29c-0.89,2-1.46,3.43-1.94,4.82l-0.63.17-5.37-12.34c-0.65-1.51-1.54-3.45-2.26-4.92l2.64-.19,5.25,12.6,3.24-7.85c0.58-1.42,1.2-3.07,1.75-4.58H129Z"/><path class="cls-4" d="M147.06,123c-1.85,0-3.45,0-5.59,0,0,0.5,0,1.13,0,1.51v9.91c0,0.94,0,2.78.1,3.46h-2.66c0.12-1.15.17-4.22,0.17-5.78v-5.21c0-1,0-2.54-.07-3.89-2.14,0-3.82,0-5.66,0a20.49,20.49,0,0,0,.1-2.18c2.18,0.07,4.22.12,6.84,0.12s4.8,0,7-.12a15.64,15.64,0,0,0-.19,2.18"/><path class="cls-4" d="M164,137.88c-1.44-.09-3.21-0.12-4.92-0.12s-3.5,0-4.92.12c0.12-1.15.17-4.24,0.17-5.78v-5.54c0-1.56,0-4.63-.17-5.78,1.42,0.07,3,.12,4.75.12s3.33,0,4.77-.12a15,15,0,0,0-.19,2.14c-1.42,0-2.88,0-4.58,0-0.72,0-1.44,0-2.14,0,0,0.43,0,1.05,0,1.41v3.62h5.83c0,0.6-.07,1.25-0.07,2h-5.76v4.44c0,0.36,0,1,0,1.44l2.14,0c1.94,0,3.62,0,5.25-.07a19.2,19.2,0,0,0-.17,2.16"/><path class="cls-4" d="M29.41,162.74a8.79,8.79,0,0,1-5.5,1.92,8.32,8.32,0,0,1-8.39-8.42c0-5.18,3.74-9.29,8.85-9.29a9,9,0,0,1,5,1.51l-0.67,2.21a7.3,7.3,0,0,0-4.46-1.56c-3.65,0-6.24,2.88-6.24,6.62,0,4.39,2.69,6.76,6.07,6.76a7.68,7.68,0,0,0,5.52-2.42Z"/><path class="cls-4" d="M47.77,164.23c0.14-1.15.19-4.22,0.19-5.78v-2H39.16v4.34c0,0.91,0,2.78.09,3.45H36.59c0.12-1.15.17-4.22,0.17-5.78v-5.3c0-1.54,0-4.63-.17-5.78a23.2,23.2,0,0,0,2.66-.12c-0.07.7-.09,2.61-0.09,3.55v3.67H48v-1.32c0-1.54,0-4.63-.19-5.78a24.42,24.42,0,0,0,2.71-.12c-0.1.7-.12,2.61-0.12,3.55v10c0,0.91,0,2.78.12,3.45H47.77Z"/><path class="cls-4" d="M59.08,164.23c0.12-1.15.17-4.22,0.17-5.78v-5.3c0-1.54,0-4.63-.17-5.78a23.18,23.18,0,0,0,2.66-.12c-0.07.7-.09,2.61-0.09,3.55v10c0,0.91,0,2.78.09,3.45H59.08Z"/><path class="cls-4" d="M82.84,162.74a8.79,8.79,0,0,1-5.5,1.92,8.32,8.32,0,0,1-8.4-8.42c0-5.18,3.74-9.29,8.85-9.29a9,9,0,0,1,5,1.51l-0.67,2.21a7.3,7.3,0,0,0-4.46-1.56c-3.65,0-6.24,2.88-6.24,6.62,0,4.39,2.69,6.76,6.07,6.76A7.68,7.68,0,0,0,83,160.08Z"/><path class="cls-4" d="M98.58,157.49l-2.66-6-2.64,6h5.3Zm3.12,6.94-2.23-5H92.39l-0.07.19c-0.63,1.44-1.3,3.1-1.9,4.58H87.79l5.71-12.29c0.94-2,1.56-3.43,2.09-4.82l0.63-.17L102,159.31c0.67,1.49,1.61,3.43,2.38,4.92Z"/><path class="cls-4" d="M121.17,156.31c1,0,1.43,0,2.49-.09-0.12.91-.09,3.26-0.09,4.82v1.85a10,10,0,0,1-6,1.77,8.57,8.57,0,0,1-8.69-8.42A9,9,0,0,1,118,147a10.16,10.16,0,0,1,5.33,1.51l-0.67,2.21a8.31,8.31,0,0,0-4.8-1.56,6.29,6.29,0,0,0-6.53,6.62c0,4.51,3,6.76,6.36,6.76a7,7,0,0,0,3.48-.77v-2.93c0-.36,0-1,0-1.44v-1.06Z"/><path class="cls-4" d="M144.45,155.76c0-4.25-2.59-6.77-6-6.77-3.55,0-5.92,3.12-5.92,6.86,0,4.25,2.59,6.77,6,6.77,3.55,0,5.93-3.12,5.93-6.86m2.47-.39c0,5.18-3.53,9.29-8.66,9.29a8.14,8.14,0,0,1-8.18-8.42c0-5.18,3.52-9.29,8.66-9.29a8.14,8.14,0,0,1,8.18,8.42"/></g></svg>
